<svg xmlns:xlink="http://www.w3.org/1999/xlink" width="18" height="18" viewBox="0 0 18 18" fill="none" xmlns="http://www.w3.org/2000/svg">
<path d="M15.336 15.339H12.671V11.162C12.671 10.166 12.651 8.884 11.281 8.884C9.892 8.884 9.68 9.968 9.68 11.089V15.339H7.014V6.75H9.574V7.92H9.609C9.967 7.246 10.837 6.533 12.137 6.533C14.837 6.533 15.337 8.311 15.337 10.624L15.336 15.339ZM4.004 5.575C3.80056 5.57526 3.59906 5.53537 3.41106 5.45761C3.22307 5.37984 3.05227 5.26574 2.90846 5.12184C2.76465 4.97793 2.65065 4.80706 2.57301 4.61901C2.49537 4.43097 2.4556 4.22944 2.456 4.026C2.4562 3.71983 2.54718 3.4206 2.71744 3.16615C2.8877 2.91169 3.12959 2.71343 3.41253 2.59645C3.69547 2.47947 4.00674 2.44902 4.30698 2.50894C4.60722 2.56886 4.88296 2.71648 5.09931 2.93311C5.31566 3.14974 5.46291 3.42566 5.52245 3.72598C5.58199 4.0263 5.55113 4.33753 5.43378 4.62032C5.31644 4.9031 5.11787 5.14474 4.86319 5.31467C4.60851 5.4846 4.30917 5.5752 4.003 5.575H4.004ZM5.34 15.339H2.667V6.75H5.34V15.339ZM16.67 0H1.33C0.594 0 0 0.58 0 1.297V16.703C0 17.42 0.594 18 1.328 18H16.667C17.4 18 18 17.42 18 16.703V1.297C18 0.581 17.4 0 16.666 0H16.67Z" fill="#101010"></path>
</svg>